<?xml version="1.0" encoding="UTF-8"?>
<svg xmlns="http://www.w3.org/2000/svg" xmlns:xlink="http://www.w3.org/1999/xlink"
     viewBox="0 0 1280 702" width="1280" height="702">
<defs>
  <filter id="s"><feDropShadow dx="0" dy="2" stdDeviation="3" flood-color="#00000018"/></filter>
  <style>text { font-family: 'Segoe UI', Arial, sans-serif; }</style>
</defs>

<rect width="1280" height="702" fill="#EEF2F7"/>

<!-- TOP NAV -->
<rect width="1280" height="52" fill="#1B3A6B"/>
<rect x="6" y="5" width="100" height="42" rx="5" fill="white"/>
<image href="LOGO.png" x="8" y="7" width="96" height="38"/>
<text x="147" y="31" fill="#8BAECF" font-size="11" text-anchor="middle">Dashboard</text>
<text x="215" y="31" fill="#8BAECF" font-size="11" text-anchor="middle">Artikel</text>
<text x="283" y="31" fill="#8BAECF" font-size="11" text-anchor="middle">Lager</text>
<text x="351" y="31" fill="#8BAECF" font-size="11" text-anchor="middle">Kunden</text>
<text x="419" y="31" fill="#8BAECF" font-size="11" text-anchor="middle">Verkauf</text>
<text x="487" y="31" fill="#8BAECF" font-size="11" text-anchor="middle">Versand</text>
<text x="555" y="31" fill="#8BAECF" font-size="11" text-anchor="middle">Retouren</text>
<text x="623" y="31" fill="#8BAECF" font-size="11" text-anchor="middle">Einkauf</text>
<rect x="668" y="8" width="70" height="36" rx="5" fill="#2D5FA6"/>
<text x="703" y="31" fill="white" font-size="11" font-weight="700" text-anchor="middle">Partner</text>
<text x="787" y="31" fill="#8BAECF" font-size="11" text-anchor="middle">Buchhaltung</text>
<text x="864" y="33" fill="#8BAECF" font-size="16" text-anchor="middle">&#9881;</text>
<rect x="1112" y="9" width="160" height="34" rx="5" fill="#0D2045"/>
<text x="1192" y="30" fill="#7EC8E3" font-size="12" text-anchor="middle">&#128100; Karl Huber &#9660;</text>

<!-- ACTION BAR -->
<rect y="52" width="1280" height="34" fill="#F8FAFC"/>
<line x1="0" y1="52" x2="1280" y2="52" stroke="#D8E0E8" stroke-width="1"/>
<line x1="0" y1="86" x2="1280" y2="86" stroke="#D8E0E8" stroke-width="1"/>

<!-- SIDEBAR -->
<rect x="0" y="86" width="210" height="616" fill="white"/>
<line x1="210" y1="86" x2="210" y2="702" stroke="#E2E8F0" stroke-width="1"/>
<rect x="0" y="86" width="210" height="26" fill="#F7FAFC"/>
<text x="16" y="104" fill="#1B3A6B" font-size="11" font-weight="700" letter-spacing="0.5">PARTNER</text>
<text x="20" y="131" fill="#4A5568" font-size="11.5">&#128101; &#220;bersicht</text>
<text x="20" y="155" fill="#4A5568" font-size="11.5">&#127968; Mietf&#228;cher</text>

<!-- ABRECHNUNG ACTIVE -->
<rect x="0" y="163" width="210" height="28" fill="#EBF8FF"/>
<rect x="0" y="163" width="3" height="28" fill="#2D5FA6"/>
<text x="20" y="182" fill="#1B3A6B" font-size="12" font-weight="700">&#128200; Abrechnung</text>

<line x1="12" y1="200" x2="198" y2="200" stroke="#E2E8F0" stroke-width="1"/>
<text x="16" y="218" fill="#9CA3AF" font-size="10" font-weight="700" letter-spacing="0.5">EINSTELLUNGEN</text>
<text x="20" y="240" fill="#4A5568" font-size="11">&#128196; Dokumentennummern</text>

<!-- CONTENT AREA -->
<!-- Periode selector row -->
<rect x="210" y="86" width="1070" height="54" fill="#F8FAFC"/>
<line x1="210" y1="140" x2="1280" y2="140" stroke="#E2E8F0" stroke-width="1.5"/>
<text x="226" y="110" fill="#718096" font-size="10">Periode</text>
<rect x="226" y="114" width="160" height="18" rx="4" fill="white" stroke="#CBD5E0" stroke-width="1"/>
<text x="306" y="127" fill="#2D3748" font-size="11" text-anchor="middle">Juni 2026 &#9660;</text>
<rect x="400" y="108" width="160" height="26" rx="5" fill="#1B3A6B"/>
<text x="480" y="125" fill="white" font-size="11.5" font-weight="700" text-anchor="middle">Alle erstellen &#9660;</text>
<text x="590" y="122" fill="#9CA3AF" font-size="10">Miete + Abrechnung f&#252;r alle Partner</text>

<!-- ── AUSSTEHEND ── -->
<text x="226" y="162" fill="#1B3A6B" font-size="13" font-weight="700">Ausstehend — Juni 2026</text>

<!-- Table header -->
<rect x="226" y="170" width="1038" height="28" fill="#F7FAFC" stroke="#E2E8F0" stroke-width="1"/>
<text x="242" y="188" fill="#718096" font-size="10" font-weight="700">PARTNER</text>
<text x="520" y="188" fill="#718096" font-size="10" font-weight="700">MIETE (brutto)</text>
<text x="660" y="188" fill="#718096" font-size="10" font-weight="700">VERK&#196;UFE</text>
<text x="800" y="188" fill="#718096" font-size="10" font-weight="700">PROVISION</text>
<text x="930" y="188" fill="#718096" font-size="10" font-weight="700">SALDO</text>
<text x="1060" y="188" fill="#718096" font-size="10" font-weight="700">AKTION</text>

<!-- Row 1: Müller Wolle — Auszahlung -->
<rect x="226" y="198" width="1038" height="48" fill="white" stroke="#E2E8F0" stroke-width="1"/>
<text x="242" y="220" fill="#1B3A6B" font-size="12" font-weight="600">M&#252;ller Wolle GmbH</text>
<text x="242" y="237" fill="#9CA3AF" font-size="10">Gegenverrechnung &#183; Gutschrift</text>
<text x="540" y="227" fill="#2D3748" font-size="12" text-anchor="middle">60,00 &#8364;</text>
<text x="680" y="227" fill="#2D3748" font-size="12" text-anchor="middle">180,00 &#8364;</text>
<text x="820" y="227" fill="#9CA3AF" font-size="12" text-anchor="middle">0,00 &#8364;</text>
<rect x="900" y="210" width="84" height="24" rx="12" fill="#C6F6D5"/>
<text x="942" y="226" fill="#276749" font-size="11.5" text-anchor="middle" font-weight="700">+ 120,00 &#8364;</text>
<text x="942" y="238" fill="#9CA3AF" font-size="9" text-anchor="middle">Auszahlung an Partner</text>
<rect x="1050" y="208" width="200" height="28" rx="5" fill="#1B3A6B"/>
<text x="1150" y="226" fill="white" font-size="11" font-weight="700" text-anchor="middle">Gutschrift erstellen &#9660;</text>

<!-- Row 2: Strick & Co — Partner zahlt -->
<rect x="226" y="246" width="1038" height="48" fill="#FAFAFA" stroke="#E2E8F0" stroke-width="1"/>
<text x="242" y="268" fill="#1B3A6B" font-size="12" font-weight="600">Strick &amp; Co KG</text>
<text x="242" y="285" fill="#9CA3AF" font-size="10">Getrennte Belege &#183; Fremdrechnung</text>
<text x="540" y="275" fill="#2D3748" font-size="12" text-anchor="middle">50,00 &#8364;</text>
<text x="680" y="275" fill="#9CA3AF" font-size="12" text-anchor="middle">0,00 &#8364;</text>
<text x="820" y="275" fill="#9CA3AF" font-size="12" text-anchor="middle">0,00 &#8364;</text>
<rect x="900" y="258" width="84" height="24" rx="12" fill="#FED7D7"/>
<text x="942" y="274" fill="#C53030" font-size="11.5" text-anchor="middle" font-weight="700">&#8722; 50,00 &#8364;</text>
<text x="942" y="286" fill="#9CA3AF" font-size="9" text-anchor="middle">Partner schuldet MeaLana</text>
<rect x="1050" y="256" width="200" height="28" rx="5" fill="#1B3A6B"/>
<text x="1150" y="274" fill="white" font-size="11" font-weight="700" text-anchor="middle">Mietrechnung erstellen &#9660;</text>

<!-- ── BEREITS ERSTELLT ── -->
<line x1="226" y1="314" x2="1264" y2="314" stroke="#E2E8F0" stroke-width="1"/>
<text x="226" y="332" fill="#718096" font-size="12" font-weight="700">Bereits erstellt — Mai 2026</text>

<!-- History table header -->
<rect x="226" y="340" width="1038" height="26" fill="#F7FAFC" stroke="#E2E8F0" stroke-width="1"/>
<text x="242" y="357" fill="#718096" font-size="10" font-weight="700">PARTNER</text>
<text x="450" y="357" fill="#718096" font-size="10" font-weight="700">DOKUMENT</text>
<text x="640" y="357" fill="#718096" font-size="10" font-weight="700">BETRAG</text>
<text x="760" y="357" fill="#718096" font-size="10" font-weight="700">ERSTELLT</text>
<text x="880" y="357" fill="#718096" font-size="10" font-weight="700">STATUS</text>
<text x="1020" y="357" fill="#718096" font-size="10" font-weight="700">AKTIONEN</text>

<!-- History Row 1 -->
<rect x="226" y="366" width="1038" height="34" fill="white" stroke="#E2E8F0" stroke-width="1"/>
<text x="242" y="387" fill="#2D3748" font-size="11">M&#252;ller Wolle GmbH</text>
<text x="450" y="387" fill="#4A5568" font-size="11">Gutschrift #GS-2026-004</text>
<text x="640" y="387" fill="#2D3748" font-size="11" font-weight="600">+ 90,00 &#8364;</text>
<text x="760" y="387" fill="#718096" font-size="11">02.06.2026</text>
<rect x="874" y="373" width="60" height="18" rx="9" fill="#C6F6D5"/>
<text x="904" y="386" fill="#276749" font-size="10" text-anchor="middle" font-weight="600">ausgezahlt</text>
<text x="1030" y="387" fill="#2D5FA6" font-size="11">&#128196; PDF</text>

<!-- History Row 2 -->
<rect x="226" y="400" width="1038" height="34" fill="#FAFAFA" stroke="#E2E8F0" stroke-width="1"/>
<text x="242" y="421" fill="#2D3748" font-size="11">Strick &amp; Co KG</text>
<text x="450" y="421" fill="#4A5568" font-size="11">Mietrechnung #MR-2026-003</text>
<text x="640" y="421" fill="#2D3748" font-size="11" font-weight="600">50,00 &#8364;</text>
<text x="760" y="421" fill="#718096" font-size="11">01.06.2026</text>
<rect x="874" y="407" width="50" height="18" rx="9" fill="#FEF3C7"/>
<text x="899" y="420" fill="#92400E" font-size="10" text-anchor="middle" font-weight="600">offen</text>
<text x="1030" y="421" fill="#2D5FA6" font-size="11">&#128196; PDF</text>
<text x="1080" y="421" fill="#276749" font-size="11">&#10003; bezahlt</text>

<!-- History Row 3 -->
<rect x="226" y="434" width="1038" height="34" fill="white" stroke="#E2E8F0" stroke-width="1"/>
<text x="242" y="455" fill="#2D3748" font-size="11">Strick &amp; Co KG</text>
<text x="450" y="455" fill="#4A5568" font-size="11">Fremdrechnung eingebucht #FR-2026-002</text>
<text x="640" y="455" fill="#2D3748" font-size="11" font-weight="600">42,00 &#8364;</text>
<text x="760" y="455" fill="#718096" font-size="11">01.06.2026</text>
<rect x="874" y="441" width="60" height="18" rx="9" fill="#C6F6D5"/>
<text x="904" y="454" fill="#276749" font-size="10" text-anchor="middle" font-weight="600">ausgezahlt</text>
<text x="1030" y="455" fill="#2D5FA6" font-size="11">&#128196; PDF</text>

<!-- Spenden-Log hint -->
<rect x="226" y="490" width="780" height="36" rx="6" fill="#FFF5F5" stroke="#FEB2B2" stroke-width="1"/>
<text x="246" y="512" fill="#C53030" font-size="11">&#128156; Yarnpride: 3 Spenden im Juni — 47,00 &#8364; — noch nicht weitergeleitet &#8594; <tspan fill="#2D5FA6" text-decoration="underline">Spenden ansehen</tspan></text>

</svg>
