<?xml version="1.0" encoding="UTF-8"?>
<svg xmlns="http://www.w3.org/2000/svg" xmlns:xlink="http://www.w3.org/1999/xlink"
     viewBox="0 0 1280 702" width="1280" height="702">
<defs>
  <filter id="s"><feDropShadow dx="0" dy="2" stdDeviation="3" flood-color="#00000018"/></filter>
  <style>text { font-family: 'Segoe UI', Arial, sans-serif; }</style>
</defs>

<rect width="1280" height="702" fill="#EEF2F7"/>

<!-- TOP NAV -->
<rect width="1280" height="52" fill="#1B3A6B"/>
<rect x="6" y="5" width="100" height="42" rx="5" fill="white"/>
<image href="LOGO.png" x="8" y="7" width="96" height="38"/>
<text x="147" y="31" fill="#8BAECF" font-size="11" text-anchor="middle">Dashboard</text>
<text x="215" y="31" fill="#8BAECF" font-size="11" text-anchor="middle">Artikel</text>
<text x="283" y="31" fill="#8BAECF" font-size="11" text-anchor="middle">Lager</text>
<text x="351" y="31" fill="#8BAECF" font-size="11" text-anchor="middle">Kunden</text>
<text x="419" y="31" fill="#8BAECF" font-size="11" text-anchor="middle">Verkauf</text>
<text x="487" y="31" fill="#8BAECF" font-size="11" text-anchor="middle">Versand</text>
<text x="555" y="31" fill="#8BAECF" font-size="11" text-anchor="middle">Retouren</text>
<text x="623" y="31" fill="#8BAECF" font-size="11" text-anchor="middle">Einkauf</text>
<rect x="668" y="8" width="70" height="36" rx="5" fill="#2D5FA6"/>
<text x="703" y="31" fill="white" font-size="11" font-weight="700" text-anchor="middle">Partner</text>
<text x="787" y="31" fill="#8BAECF" font-size="11" text-anchor="middle">Buchhaltung</text>
<text x="864" y="33" fill="#8BAECF" font-size="16" text-anchor="middle">&#9881;</text>
<rect x="1112" y="9" width="160" height="34" rx="5" fill="#0D2045"/>
<text x="1192" y="30" fill="#7EC8E3" font-size="12" text-anchor="middle">&#128100; Karl Huber &#9660;</text>

<!-- ACTION BAR -->
<rect y="52" width="1280" height="34" fill="#F8FAFC"/>
<line x1="0" y1="52" x2="1280" y2="52" stroke="#D8E0E8" stroke-width="1"/>
<line x1="0" y1="86" x2="1280" y2="86" stroke="#D8E0E8" stroke-width="1"/>
<rect x="14" y="61" width="70" height="24" rx="4" fill="#1B3A6B"/>
<text x="49" y="77" fill="white" font-size="11.5" font-weight="700" text-anchor="middle">+ Neu</text>

<!-- SIDEBAR -->
<rect x="0" y="86" width="210" height="616" fill="white"/>
<line x1="210" y1="86" x2="210" y2="702" stroke="#E2E8F0" stroke-width="1"/>
<rect x="0" y="86" width="210" height="26" fill="#F7FAFC"/>
<text x="16" y="104" fill="#1B3A6B" font-size="11" font-weight="700" letter-spacing="0.5">PARTNER</text>

<rect x="0" y="112" width="210" height="28" fill="#EBF8FF"/>
<rect x="0" y="112" width="3" height="28" fill="#2D5FA6"/>
<text x="20" y="131" fill="#1B3A6B" font-size="12" font-weight="700">&#128101; &#220;bersicht</text>
<text x="20" y="157" fill="#4A5568" font-size="11.5">&#127968; Mietf&#228;cher</text>
<text x="20" y="181" fill="#4A5568" font-size="11.5">&#128200; Abrechnung</text>

<line x1="12" y1="198" x2="198" y2="198" stroke="#E2E8F0" stroke-width="1"/>
<text x="16" y="216" fill="#9CA3AF" font-size="10" font-weight="700" letter-spacing="0.5">EINSTELLUNGEN</text>
<text x="20" y="238" fill="#4A5568" font-size="11">&#128196; Dokumentennummern</text>

<!-- FILTER BAR -->
<rect x="210" y="86" width="1070" height="44" fill="#F8FAFC"/>
<line x1="210" y1="130" x2="1280" y2="130" stroke="#E2E8F0" stroke-width="1"/>
<rect x="226" y="96" width="280" height="26" rx="5" fill="white" stroke="#CBD5E0" stroke-width="1"/>
<text x="242" y="113" fill="#9CA3AF" font-size="11">&#128269; Name, UID, Kontakt&#x2026;</text>
<rect x="518" y="96" width="130" height="26" rx="5" fill="white" stroke="#CBD5E0" stroke-width="1"/>
<text x="583" y="113" fill="#4A5568" font-size="11" text-anchor="middle">Typ: Alle &#9660;</text>
<rect x="660" y="96" width="110" height="26" rx="5" fill="white" stroke="#CBD5E0" stroke-width="1"/>
<text x="715" y="113" fill="#4A5568" font-size="11" text-anchor="middle">Status &#9660;</text>

<!-- TABLE HEADER -->
<rect x="210" y="130" width="1070" height="28" fill="#F7FAFC"/>
<line x1="210" y1="158" x2="1280" y2="158" stroke="#D1D9E8" stroke-width="1.5"/>
<text x="226" y="148" fill="#718096" font-size="10" font-weight="700">NAME</text>
<text x="530" y="148" fill="#718096" font-size="10" font-weight="700">TYP</text>
<text x="680" y="148" fill="#718096" font-size="10" font-weight="700">F&#196;CHER</text>
<text x="780" y="148" fill="#718096" font-size="10" font-weight="700">UID / REGISTERZEICHEN</text>
<text x="1000" y="148" fill="#718096" font-size="10" font-weight="700">STATUS</text>
<text x="1130" y="148" fill="#718096" font-size="10" font-weight="700">AKTIONEN</text>

<!-- ROW 1: Müller Wolle -->
<rect x="210" y="158" width="1070" height="42" fill="white"/>
<line x1="210" y1="200" x2="1280" y2="200" stroke="#E2E8F0" stroke-width="1"/>
<text x="226" y="184" fill="#1B3A6B" font-size="12" font-weight="600">M&#252;ller Wolle GmbH</text>
<text x="226" y="198" fill="#9CA3AF" font-size="10">Gegenverrechnung &#183; Gutschrift</text>
<rect x="522" y="165" width="96" height="20" rx="10" fill="#EBF8FF"/>
<text x="570" y="179" fill="#2B6CB0" font-size="10.5" text-anchor="middle" font-weight="600">Kommission</text>
<text x="700" y="183" fill="#4A5568" font-size="13" text-anchor="middle" font-weight="600">2</text>
<text x="782" y="183" fill="#4A5568" font-size="11">ATU12345678</text>
<rect x="994" y="166" width="52" height="20" rx="10" fill="#C6F6D5"/>
<text x="1020" y="180" fill="#276749" font-size="10.5" text-anchor="middle" font-weight="600">aktiv</text>
<text x="1138" y="185" fill="#2D5FA6" font-size="16">&#9998;</text>
<text x="1172" y="184" fill="#E53E3E" font-size="14" font-weight="700">&#10005;</text>

<!-- ROW 2: Strick & Co -->
<rect x="210" y="200" width="1070" height="42" fill="#FAFAFA"/>
<line x1="210" y1="242" x2="1280" y2="242" stroke="#E2E8F0" stroke-width="1"/>
<text x="226" y="226" fill="#1B3A6B" font-size="12" font-weight="600">Strick &amp; Co KG</text>
<text x="226" y="240" fill="#9CA3AF" font-size="10">Getrennte Belege &#183; Fremdrechnung &#183; Kleinunternehmer</text>
<rect x="522" y="207" width="96" height="20" rx="10" fill="#EBF8FF"/>
<text x="570" y="221" fill="#2B6CB0" font-size="10.5" text-anchor="middle" font-weight="600">Kommission</text>
<text x="700" y="225" fill="#4A5568" font-size="13" text-anchor="middle" font-weight="600">1</text>
<text x="782" y="225" fill="#9CA3AF" font-size="11">&#8212; Kleinunternehmer</text>
<rect x="994" y="208" width="52" height="20" rx="10" fill="#C6F6D5"/>
<text x="1020" y="222" fill="#276749" font-size="10.5" text-anchor="middle" font-weight="600">aktiv</text>
<text x="1138" y="227" fill="#2D5FA6" font-size="16">&#9998;</text>
<text x="1172" y="226" fill="#E53E3E" font-size="14" font-weight="700">&#10005;</text>

<!-- ROW 3: Yarnpride -->
<rect x="210" y="242" width="1070" height="42" fill="white"/>
<line x1="210" y1="284" x2="1280" y2="284" stroke="#E2E8F0" stroke-width="1"/>
<text x="226" y="268" fill="#1B3A6B" font-size="12" font-weight="600">Yarnpride e.V.</text>
<text x="226" y="282" fill="#9CA3AF" font-size="10">Gemeinn&#252;tziger Verein &#183; Spenden-Abwicklung</text>
<rect x="522" y="249" width="72" height="20" rx="10" fill="#FFF5F5"/>
<text x="558" y="263" fill="#C53030" font-size="10.5" text-anchor="middle" font-weight="600">Spende</text>
<text x="700" y="267" fill="#9CA3AF" font-size="13" text-anchor="middle">&#8212;</text>
<text x="782" y="267" fill="#4A5568" font-size="11">ZVR 123456789</text>
<rect x="994" y="250" width="52" height="20" rx="10" fill="#C6F6D5"/>
<text x="1020" y="264" fill="#276749" font-size="10.5" text-anchor="middle" font-weight="600">aktiv</text>
<text x="1138" y="269" fill="#2D5FA6" font-size="16">&#9998;</text>
<text x="1172" y="268" fill="#E53E3E" font-size="14" font-weight="700">&#10005;</text>

<!-- info hint -->
<rect x="226" y="302" width="680" height="36" rx="6" fill="#EBF8FF" stroke="#BEE3F8" stroke-width="1"/>
<text x="246" y="324" fill="#2B6CB0" font-size="11">&#8505;&#65039;  Artikel k&#246;nnen einem Partner zugeordnet werden &#8594; Artikelmodul &#8594; Tab &quot;Partner&quot;</text>

</svg>
