<?xml version="1.0" encoding="UTF-8"?>
<svg xmlns="http://www.w3.org/2000/svg" xmlns:xlink="http://www.w3.org/1999/xlink"
     viewBox="0 0 1280 900" width="1280" height="900">
<defs>
  <filter id="sh"><feDropShadow dx="0" dy="2" stdDeviation="4" flood-color="#00000018"/></filter>
  <style>text { font-family: 'Segoe UI', Arial, sans-serif; }</style>
</defs>

<rect width="1280" height="900" fill="#EEF2F7"/>

<!-- ══ TOP NAV ══ -->
<rect width="1280" height="52" fill="#1B3A6B"/>
<rect x="6" y="5" width="100" height="42" rx="5" fill="white"/>
<image href="LOGO.png" x="8" y="7" width="96" height="38"/>
<text x="167" y="31" fill="#8BAECF" font-size="12" text-anchor="middle">Dashboard</text>
<rect x="198" y="8" width="80" height="36" rx="5" fill="#2D5FA6"/>
<text x="238" y="31" fill="white" font-size="12.5" font-weight="700" text-anchor="middle">Artikel</text>
<text x="308" y="31" fill="#8BAECF" font-size="12" text-anchor="middle">Lager</text>
<text x="372" y="31" fill="#8BAECF" font-size="12" text-anchor="middle">Kunden</text>
<text x="438" y="31" fill="#8BAECF" font-size="12" text-anchor="middle">Verkauf</text>
<text x="506" y="31" fill="#8BAECF" font-size="12" text-anchor="middle">Versand</text>
<text x="574" y="31" fill="#8BAECF" font-size="12" text-anchor="middle">Retouren</text>
<text x="640" y="31" fill="#8BAECF" font-size="12" text-anchor="middle">Einkauf</text>
<text x="726" y="31" fill="#8BAECF" font-size="12" text-anchor="middle">Buchhaltung</text>
<text x="808" y="33" fill="#8BAECF" font-size="18" text-anchor="middle">&#9881;</text>
<text x="838" y="30" fill="#8BAECF" font-size="14">&#x2026;</text>
<rect x="1112" y="9" width="160" height="34" rx="5" fill="#0D2045"/>
<text x="1192" y="30" fill="#7EC8E3" font-size="12" text-anchor="middle">&#128100; Karl Huber &#9660;</text>

<!-- ══ ACTION BAR ══ -->
<rect y="52" width="1280" height="34" fill="#F8FAFC"/>
<line x1="0" y1="52" x2="1280" y2="52" stroke="#D8E0E8" stroke-width="1"/>
<line x1="0" y1="86" x2="1280" y2="86" stroke="#D8E0E8" stroke-width="1"/>
<rect x="14" y="61" width="96" height="24" rx="4" fill="#1B3A6B"/>
<text x="62" y="77" fill="white" font-size="11.5" font-weight="700" text-anchor="middle">&#128190; Speichern</text>
<text x="124" y="77" fill="#4A5568" font-size="11.5">&#10005; Abbrechen</text>
<line x1="192" y1="62" x2="192" y2="80" stroke="#E2E8F0" stroke-width="1"/>
<text x="206" y="77" fill="#C05621" font-size="11.5">&#8856; Deaktivieren</text>
<rect x="326" y="61" width="108" height="24" rx="4" fill="#EBF8FF" stroke="#BEE3F8" stroke-width="1"/>
<text x="380" y="77" fill="#2B6CB0" font-size="11.5" text-anchor="middle">&#8594; Im Shop &#9660;</text>
<line x1="448" y1="62" x2="448" y2="80" stroke="#E2E8F0" stroke-width="1"/>
<text x="462" y="77" fill="#E53E3E" font-size="11.5">&#128465; L&#246;schen</text>

<!-- ══ SIDEBAR — DETAIL MODE ══ -->
<rect x="0" y="86" width="210" height="754" fill="white"/>
<line x1="210" y1="86" x2="210" y2="840" stroke="#E2E8F0" stroke-width="1"/>
<rect x="0" y="86" width="210" height="26" fill="#F7FAFC"/>
<text x="16" y="104" fill="#1B3A6B" font-size="11" font-weight="700" letter-spacing="0.5">ARTIKEL</text>
<text x="194" y="103" fill="#718096" font-size="13" text-anchor="end">&#9664;</text>
<text x="16" y="128" fill="#2D5FA6" font-size="11.5">&#8592; zur Liste</text>
<line x1="12" y1="140" x2="198" y2="140" stroke="#E2E8F0" stroke-width="1"/>

<!-- Article context box -->
<rect x="10" y="148" width="190" height="44" rx="5" fill="#F0F7FF" stroke="#BEE3F8" stroke-width="1"/>
<text x="18" y="163" fill="#9CA3AF" font-size="9.5" font-weight="700">ART-00789</text>
<text x="18" y="180" fill="#1B3A6B" font-size="11" font-weight="600">Nadelspitzen Naturals</text>
<line x1="12" y1="202" x2="198" y2="202" stroke="#E2E8F0" stroke-width="1"/>

<!-- Nav: Stammdaten (inactive) -->
<text x="20" y="225" fill="#4A5568" font-size="11.5">&#128203; Stammdaten</text>

<!-- Nav: Varianten (ACTIVE) -->
<rect x="0" y="231" width="210" height="26" fill="#EBF8FF"/>
<rect x="0" y="231" width="3" height="26" fill="#2D5FA6"/>
<text x="20" y="249" fill="#1B3A6B" font-size="11.5" font-weight="700">&#8644; Varianten</text>
<rect x="156" y="236" width="22" height="14" rx="7" fill="#2D5FA6"/>
<text x="167" y="246" fill="white" font-size="9" font-weight="700" text-anchor="middle">3</text>

<text x="20" y="275" fill="#4A5568" font-size="11.5">&#128178; Preise</text>
<text x="20" y="299" fill="#4A5568" font-size="11.5">&#127981; Lager</text>
<text x="20" y="323" fill="#4A5568" font-size="11.5">&#128247; Bilder</text>
<rect x="156" y="313" width="22" height="14" rx="7" fill="#718096"/>
<text x="167" y="323" fill="white" font-size="9" font-weight="700" text-anchor="middle">5</text>
<text x="20" y="347" fill="#4A5568" font-size="11.5">&#127991; Merkmale</text>
<text x="20" y="371" fill="#4A5568" font-size="11.5">&#128666; Lieferanten</text>
<line x1="12" y1="385" x2="198" y2="385" stroke="#E2E8F0" stroke-width="1"/>
<text x="20" y="404" fill="#9CA3AF" font-size="11">&#127760; SEO</text>
<text x="20" y="424" fill="#9CA3AF" font-size="11">&#128202; Statistik</text>
<text x="20" y="444" fill="#CBD5E0" font-size="9" font-style="italic">nur &#252;ber Sidebar</text>

<!-- ══ ARTICLE HEADER ══ -->
<rect x="211" y="86" width="1069" height="66" fill="white"/>
<line x1="211" y1="152" x2="1280" y2="152" stroke="#E2E8F0" stroke-width="1.5"/>
<!-- Thumbnail: wood/bamboo color (Knit Pro Naturals) -->
<rect x="226" y="94" width="52" height="50" rx="6" fill="#D4B896" stroke="#B89870" stroke-width="1"/>
<text x="252" y="118" fill="#8B6840" font-size="8" text-anchor="middle">NATURALS</text>
<text x="252" y="130" fill="#8B6840" font-size="7.5" text-anchor="middle">Holz</text>
<!-- Article name -->
<text x="290" y="116" fill="#1A202C" font-size="17" font-weight="700">Nadelspitzen Naturals (Knit Pro)</text>
<text x="292" y="136" fill="#718096" font-size="11">
  <tspan fill="#2D5FA6" font-weight="700">ART-00789</tspan>
  <tspan fill="#CBD5E0">  &#9474;  </tspan>
  <tspan>Nadeln</tspan>
  <tspan fill="#CBD5E0">  &#9474;  </tspan>
  <tspan>Nadeln &gt; Nadelspitzen</tspan>
  <tspan fill="#CBD5E0">  &#9474;  </tspan>
  <tspan fill="#27AE60">Knit Pro</tspan>
</text>
<circle cx="1186" cy="111" r="7" fill="#48BB78"/>
<text x="1198" y="115" fill="#276749" font-size="12.5" font-weight="700">Aktiv</text>

<!-- ══ TAB BAR ══ -->
<rect x="211" y="152" width="1069" height="38" fill="#F8FAFC"/>
<line x1="211" y1="190" x2="1280" y2="190" stroke="#D1D9E8" stroke-width="1.5"/>

<!-- Stammdaten (inactive) -->
<text x="273" y="175" fill="#718096" font-size="11.5" text-anchor="middle">Stammdaten</text>

<!-- Varianten (ACTIVE) -->
<rect x="335" y="152" width="118" height="38" fill="white"/>
<rect x="335" y="187" width="118" height="3" fill="#2D5FA6"/>
<text x="385" y="175" fill="#1B3A6B" font-size="11.5" font-weight="700" text-anchor="middle">Varianten</text>
<rect x="408" y="161" width="18" height="13" rx="6" fill="#2D5FA6"/>
<text x="417" y="171" fill="white" font-size="9" font-weight="700" text-anchor="middle">3</text>

<text x="503" y="175" fill="#718096" font-size="11.5" text-anchor="middle">Preise</text>
<text x="580" y="175" fill="#718096" font-size="11.5" text-anchor="middle">Lager</text>
<text x="660" y="175" fill="#718096" font-size="11.5" text-anchor="middle">Bilder</text>
<rect x="681" y="161" width="18" height="13" rx="6" fill="#718096"/>
<text x="690" y="171" fill="white" font-size="9" font-weight="700" text-anchor="middle">5</text>
<text x="772" y="175" fill="#718096" font-size="11.5" text-anchor="middle">Merkmale</text>
<text x="873" y="175" fill="#718096" font-size="11.5" text-anchor="middle">Lieferanten</text>

<!-- Tab separators -->
<line x1="335" y1="161" x2="335" y2="183" stroke="#E2E8F0" stroke-width="1"/>
<line x1="453" y1="161" x2="453" y2="183" stroke="#E2E8F0" stroke-width="1"/>
<line x1="537" y1="161" x2="537" y2="183" stroke="#E2E8F0" stroke-width="1"/>
<line x1="614" y1="161" x2="614" y2="183" stroke="#E2E8F0" stroke-width="1"/>
<line x1="706" y1="161" x2="706" y2="183" stroke="#E2E8F0" stroke-width="1"/>
<line x1="828" y1="161" x2="828" y2="183" stroke="#E2E8F0" stroke-width="1"/>
<line x1="920" y1="161" x2="920" y2="183" stroke="#E2E8F0" stroke-width="1"/>

<!-- ══ VARIANTEN CONTENT ══ -->

<!-- ─ PANEL SWITCHER ─ -->
<!-- Left button: Achsen & Generator (ACTIVE) -->
<rect x="226" y="200" width="272" height="34" rx="6" fill="#1B3A6B"/>
<text x="362" y="221" fill="white" font-size="12" font-weight="700" text-anchor="middle">&#9664; Achsen &amp; Generator</text>
<!-- Right button: Kinder-Liste (inactive) -->
<rect x="502" y="200" width="220" height="34" rx="6" fill="white" stroke="#CBD5E0" stroke-width="1"/>
<text x="612" y="221" fill="#718096" font-size="12" text-anchor="middle">Kinder-Liste &#9654;</text>
<!-- Smart-Hinweis -->
<text x="740" y="214" fill="#9CA3AF" font-size="10" font-style="italic">&#128161; Generator aktiv: noch 2 neue Kombinationen m&#246;glich</text>
<text x="740" y="228" fill="#9CA3AF" font-size="10" font-style="italic">Wechselt automatisch zur Kinder-Liste wenn alle existieren</text>

<!-- ─ ACHSEN CARD ─ -->
<rect x="226" y="244" width="1034" height="92" rx="8" fill="white" filter="url(#sh)"/>
<!-- Card header -->
<rect x="226" y="244" width="1034" height="28" rx="8" fill="#F7FAFC"/>
<rect x="226" y="258" width="1034" height="14" fill="#F7FAFC"/>
<line x1="226" y1="272" x2="1260" y2="272" stroke="#E2E8F0" stroke-width="1"/>
<text x="246" y="262" fill="#9CA3AF" font-size="10" font-weight="700" letter-spacing="1">ACHSEN</text>

<!-- Axis 1 row -->
<text x="246" y="290" fill="#718096" font-size="10.5">Achse 1</text>
<!-- Axis name chip -->
<rect x="296" y="279" width="110" height="20" rx="10" fill="#1B3A6B"/>
<text x="351" y="293" fill="white" font-size="10.5" font-weight="600" text-anchor="middle">Nadelst&#228;rke</text>
<!-- Type chip -->
<rect x="414" y="279" width="72" height="20" rx="10" fill="#EBF8FF" stroke="#BEE3F8" stroke-width="1"/>
<text x="450" y="293" fill="#2B6CB0" font-size="10" text-anchor="middle">Dropdown</text>
<!-- Edit/Delete -->
<rect x="494" y="281" width="22" height="16" rx="3" fill="#EBF8FF" stroke="#BEE3F8" stroke-width="1"/>
<text x="505" y="292" fill="#2B6CB0" font-size="10" text-anchor="middle">&#9998;</text>
<rect x="520" y="281" width="22" height="16" rx="3" fill="#FFF5F5" stroke="#FED7D7" stroke-width="1"/>
<text x="531" y="292" fill="#E53E3E" font-size="10" text-anchor="middle">&#128465;</text>

<!-- Value chips -->
<rect x="554" y="280" width="56" height="18" rx="9" fill="#EDF2F7" stroke="#CBD5E0" stroke-width="1"/>
<text x="574" y="292" fill="#4A5568" font-size="10" text-anchor="middle">3.5mm &#215;</text>
<rect x="616" y="280" width="56" height="18" rx="9" fill="#EDF2F7" stroke="#CBD5E0" stroke-width="1"/>
<text x="636" y="292" fill="#4A5568" font-size="10" text-anchor="middle">4.0mm &#215;</text>
<rect x="678" y="280" width="56" height="18" rx="9" fill="#EDF2F7" stroke="#CBD5E0" stroke-width="1"/>
<text x="698" y="292" fill="#4A5568" font-size="10" text-anchor="middle">4.5mm &#215;</text>
<rect x="740" y="280" width="56" height="18" rx="9" fill="#EDF2F7" stroke="#CBD5E0" stroke-width="1"/>
<text x="760" y="292" fill="#4A5568" font-size="10" text-anchor="middle">5.0mm &#215;</text>
<rect x="802" y="280" width="56" height="18" rx="9" fill="#EDF2F7" stroke="#CBD5E0" stroke-width="1"/>
<text x="822" y="292" fill="#4A5568" font-size="10" text-anchor="middle">6.0mm &#215;</text>
<rect x="864" y="280" width="56" height="18" rx="9" fill="#EDF2F7" stroke="#CBD5E0" stroke-width="1"/>
<text x="884" y="292" fill="#4A5568" font-size="10" text-anchor="middle">8.0mm &#215;</text>
<rect x="926" y="280" width="70" height="18" rx="9" fill="white" stroke="#7EC8E3" stroke-width="1" stroke-dasharray="3,2"/>
<text x="961" y="292" fill="#7EC8E3" font-size="10" text-anchor="middle">+ Wert</text>

<!-- Add axis button -->
<text x="246" y="326" fill="#7EC8E3" font-size="10.5">+ Weitere Achse hinzuf&#252;gen</text>

<!-- ─ GENERATOR CARD ─ -->
<rect x="226" y="346" width="1034" height="454" rx="8" fill="white" filter="url(#sh)"/>

<!-- Generator header -->
<rect x="226" y="346" width="1034" height="32" rx="8" fill="#F7FAFC"/>
<rect x="226" y="362" width="1034" height="16" fill="#F7FAFC"/>
<line x1="226" y1="378" x2="1260" y2="378" stroke="#E2E8F0" stroke-width="1"/>
<text x="246" y="365" fill="#9CA3AF" font-size="10" font-weight="700" letter-spacing="1">VARKОМBI-GENERATOR</text>
<text x="1020" y="365" fill="#9CA3AF" font-size="10" text-anchor="end">1 Achse · 6 Kombinationen</text>

<!-- ── Artikelnummer-Builder ── -->
<text x="246" y="400" fill="#718096" font-size="11">Art.-Nr.-Vorlage</text>

<!-- Builder: draggable blocks -->
<!-- Block 1: Vater-Nr. (fixed, blau) -->
<rect x="360" y="388" width="152" height="32" rx="6" fill="#EBF8FF" stroke="#BEE3F8" stroke-width="1.5"/>
<text x="366" y="399" fill="#9CA3AF" font-size="8">&#8942;&#8942;</text>
<text x="400" y="400" fill="#2B6CB0" font-size="9" text-anchor="middle" font-weight="600">VATER-NR.</text>
<text x="400" y="414" fill="#1B3A6B" font-size="11.5" text-anchor="middle" font-weight="700">ART-00789</text>

<!-- Separator block (editable) -->
<rect x="520" y="394" width="40" height="26" rx="4" fill="white" stroke="#CBD5E0" stroke-width="1.5"/>
<text x="540" y="411" fill="#1A202C" font-size="13" font-weight="700" text-anchor="middle">&#8211;</text>
<text x="540" y="424" fill="#9CA3AF" font-size="7.5" text-anchor="middle">editierbar</text>

<!-- Block 2: Achswert (grün) -->
<rect x="568" y="388" width="130" height="32" rx="6" fill="#F0FFF4" stroke="#9AE6B4" stroke-width="1.5"/>
<text x="574" y="399" fill="#9CA3AF" font-size="8">&#8942;&#8942;</text>
<text x="633" y="400" fill="#276749" font-size="9" text-anchor="middle" font-weight="600">ACHSWERT</text>
<text x="633" y="414" fill="#276749" font-size="11.5" text-anchor="middle" font-weight="700">{WERT}</text>

<!-- Available blocks palette -->
<text x="720" y="396" fill="#CBD5E0" font-size="10">Verf&#252;gbar:</text>
<rect x="792" y="388" width="76" height="22" rx="11" fill="white" stroke="#E2E8F0" stroke-width="1" stroke-dasharray="3,2"/>
<text x="830" y="403" fill="#CBD5E0" font-size="10" text-anchor="middle">Lfd.-Nr.</text>

<!-- Live preview -->
<text x="360" y="438" fill="#718096" font-size="10.5">Vorschau: </text>
<text x="420" y="438" fill="#1B3A6B" font-size="11" font-weight="600">ART-00789-35</text>
<text x="524" y="438" fill="#CBD5E0" font-size="10.5">ART-00789-40</text>
<text x="622" y="438" fill="#CBD5E0" font-size="10.5">ART-00789-45</text>
<text x="720" y="438" fill="#CBD5E0" font-size="10.5">&#x2026;</text>

<!-- ── Info strip ── -->
<rect x="227" y="452" width="1032" height="30" fill="#F7FAFC"/>
<line x1="227" y1="452" x2="1259" y2="452" stroke="#E2E8F0" stroke-width="1"/>
<line x1="227" y1="482" x2="1259" y2="482" stroke="#E2E8F0" stroke-width="1"/>
<!-- Green: existiert -->
<circle cx="252" cy="467" r="5" fill="#48BB78"/>
<text x="262" y="471" fill="#276749" font-size="10.5" font-weight="600">3 existieren bereits</text>
<text x="370" y="471" fill="#CBD5E0" font-size="12">&#9474;</text>
<!-- Blue: neu -->
<circle cx="390" cy="467" r="5" fill="#3182CE"/>
<text x="400" y="471" fill="#2B6CB0" font-size="10.5" font-weight="600">2 werden neu erstellt</text>
<text x="520" y="471" fill="#CBD5E0" font-size="12">&#9474;</text>
<!-- Gray: abgewählt -->
<circle cx="540" cy="467" r="5" fill="#CBD5E0"/>
<text x="550" y="471" fill="#9CA3AF" font-size="10.5">1 abgew&#228;hlt</text>

<!-- ── Table header ── -->
<rect x="227" y="482" width="1032" height="28" fill="#F7FAFC"/>
<line x1="227" y1="510" x2="1259" y2="510" stroke="#D1D9E8" stroke-width="1.5"/>
<text x="272" y="500" fill="#718096" font-size="9.5" font-weight="700" text-anchor="middle">&#9745;</text>
<text x="380" y="500" fill="#718096" font-size="9.5" font-weight="700">ART.-NR.</text>
<text x="560" y="500" fill="#718096" font-size="9.5" font-weight="700">BEZEICHNUNG</text>
<text x="990" y="500" fill="#718096" font-size="9.5" font-weight="700" text-anchor="middle">STATUS</text>

<!-- ── Table rows ── -->

<!-- Row 1: 3.5mm — existiert, checked -->
<rect x="227" y="510" width="1032" height="34" fill="white"/>
<line x1="227" y1="544" x2="1259" y2="544" stroke="#EDF2F7" stroke-width="1"/>
<rect x="254" y="520" width="14" height="14" rx="3" fill="#2D5FA6" stroke="#2D5FA6" stroke-width="1"/>
<text x="261" y="531" fill="white" font-size="10" font-weight="700" text-anchor="middle">&#10003;</text>
<text x="310" y="531" fill="#2D5FA6" font-size="11" font-weight="600">ART-00789-35</text>
<text x="468" y="531" fill="#4A5568" font-size="11">Nadelspitzen Naturals 3.5mm</text>
<!-- Status: existiert -->
<rect x="920" y="519" width="86" height="18" rx="9" fill="#C6F6D5"/>
<text x="963" y="532" fill="#276749" font-size="10" font-weight="700" text-anchor="middle">&#10003; existiert</text>

<!-- Row 2: 4.0mm — existiert, checked -->
<rect x="227" y="544" width="1032" height="34" fill="#FAFCFF"/>
<line x1="227" y1="578" x2="1259" y2="578" stroke="#EDF2F7" stroke-width="1"/>
<rect x="254" y="554" width="14" height="14" rx="3" fill="#2D5FA6" stroke="#2D5FA6" stroke-width="1"/>
<text x="261" y="565" fill="white" font-size="10" font-weight="700" text-anchor="middle">&#10003;</text>
<text x="310" y="565" fill="#2D5FA6" font-size="11" font-weight="600">ART-00789-40</text>
<text x="468" y="565" fill="#4A5568" font-size="11">Nadelspitzen Naturals 4.0mm</text>
<rect x="920" y="553" width="86" height="18" rx="9" fill="#C6F6D5"/>
<text x="963" y="566" fill="#276749" font-size="10" font-weight="700" text-anchor="middle">&#10003; existiert</text>

<!-- Row 3: 4.5mm — existiert, checked -->
<rect x="227" y="578" width="1032" height="34" fill="white"/>
<line x1="227" y1="612" x2="1259" y2="612" stroke="#EDF2F7" stroke-width="1"/>
<rect x="254" y="588" width="14" height="14" rx="3" fill="#2D5FA6" stroke="#2D5FA6" stroke-width="1"/>
<text x="261" y="599" fill="white" font-size="10" font-weight="700" text-anchor="middle">&#10003;</text>
<text x="310" y="599" fill="#2D5FA6" font-size="11" font-weight="600">ART-00789-45</text>
<text x="468" y="599" fill="#4A5568" font-size="11">Nadelspitzen Naturals 4.5mm</text>
<rect x="920" y="587" width="86" height="18" rx="9" fill="#C6F6D5"/>
<text x="963" y="600" fill="#276749" font-size="10" font-weight="700" text-anchor="middle">&#10003; existiert</text>

<!-- Row 4: 5.0mm — NEU, checked (light blue highlight) -->
<rect x="227" y="612" width="1032" height="34" fill="#EBF8FF"/>
<line x1="227" y1="646" x2="1259" y2="646" stroke="#BEE3F8" stroke-width="1"/>
<rect x="254" y="622" width="14" height="14" rx="3" fill="#2D5FA6" stroke="#2D5FA6" stroke-width="1"/>
<text x="261" y="633" fill="white" font-size="10" font-weight="700" text-anchor="middle">&#10003;</text>
<text x="310" y="633" fill="#2D5FA6" font-size="11" font-weight="600">ART-00789-50</text>
<text x="468" y="633" fill="#4A5568" font-size="11">Nadelspitzen Naturals 5.0mm</text>
<rect x="920" y="621" width="64" height="18" rx="9" fill="#BEE3F8"/>
<text x="952" y="634" fill="#2B6CB0" font-size="10" font-weight="700" text-anchor="middle">&#9679; neu</text>

<!-- Row 5: 6.0mm — NEU, checked (light blue highlight) -->
<rect x="227" y="646" width="1032" height="34" fill="#EBF8FF"/>
<line x1="227" y1="680" x2="1259" y2="680" stroke="#BEE3F8" stroke-width="1"/>
<rect x="254" y="656" width="14" height="14" rx="3" fill="#2D5FA6" stroke="#2D5FA6" stroke-width="1"/>
<text x="261" y="667" fill="white" font-size="10" font-weight="700" text-anchor="middle">&#10003;</text>
<text x="310" y="667" fill="#2D5FA6" font-size="11" font-weight="600">ART-00789-60</text>
<text x="468" y="667" fill="#4A5568" font-size="11">Nadelspitzen Naturals 6.0mm</text>
<rect x="920" y="655" width="64" height="18" rx="9" fill="#BEE3F8"/>
<text x="952" y="668" fill="#2B6CB0" font-size="10" font-weight="700" text-anchor="middle">&#9679; neu</text>

<!-- Row 6: 8.0mm — NEU, UNCHECKED (grayed) -->
<rect x="227" y="680" width="1032" height="34" fill="#F8FAFC"/>
<line x1="227" y1="714" x2="1259" y2="714" stroke="#EDF2F7" stroke-width="1"/>
<rect x="254" y="690" width="14" height="14" rx="3" fill="white" stroke="#CBD5E0" stroke-width="1.5"/>
<text x="310" y="701" fill="#A0ADB8" font-size="11">ART-00789-80</text>
<text x="468" y="701" fill="#A0ADB8" font-size="11">Nadelspitzen Naturals 8.0mm</text>
<rect x="920" y="689" width="64" height="18" rx="9" fill="#E2E8F0"/>
<text x="952" y="702" fill="#9CA3AF" font-size="10" font-weight="700" text-anchor="middle">&#9675; neu</text>
<text x="1000" y="701" fill="#9CA3AF" font-size="10" font-style="italic">abgew&#228;hlt</text>

<!-- ── Footer / Actions ── -->
<line x1="227" y1="718" x2="1259" y2="718" stroke="#E2E8F0" stroke-width="1"/>
<rect x="227" y="718" width="1032" height="50" rx="8" fill="#F7FAFC"/>

<!-- Bulk selectors -->
<rect x="246" y="732" width="14" height="14" rx="3" fill="#2D5FA6" stroke="#2D5FA6" stroke-width="1"/>
<text x="253" y="743" fill="white" font-size="10" font-weight="700" text-anchor="middle">&#10003;</text>
<text x="268" y="743" fill="#4A5568" font-size="11">Alle</text>
<line x1="302" y1="730" x2="302" y2="752" stroke="#E2E8F0" stroke-width="1"/>
<text x="312" y="743" fill="#4A5568" font-size="11">Nur neue</text>

<!-- Generate button (prominent, right-aligned) -->
<rect x="1010" y="726" width="232" height="32" rx="6" fill="#1B3A6B"/>
<text x="1126" y="746" fill="white" font-size="12.5" font-weight="700" text-anchor="middle">&#9654; Ausgew&#228;hlte generieren (2)</text>

<!-- ══ LOG BAR ══ -->
<rect y="838" width="1280" height="36" fill="#1E1E2E"/>
<text x="12" y="860" fill="#7EC8E3" font-size="11.5" font-weight="700">&#9654; LOG</text>
<text x="52" y="860" fill="#68D391" font-size="11">&#9679; 11:02</text>
<text x="94" y="860" fill="#A0AEC0" font-size="11">[OK] ART-00789 ge&#246;ffnet — 3 Kinder-Artikel vorhanden</text>
<text x="420" y="860" fill="#F6E05E" font-size="11">&#9679; 11:00</text>
<text x="462" y="860" fill="#A0AEC0" font-size="11">[INFO] VarKombi-Generator: 2 neue Kombinationen erkannt (5.0mm, 6.0mm)</text>

<!-- ══ STATUS BAR ══ -->
<rect y="874" width="1280" height="26" fill="#0D2045"/>
<text x="12" y="891" fill="#7EC8E3" font-size="11">&#128100; Karl Huber</text>
<line x1="108" y1="878" x2="108" y2="896" stroke="#2D5FA6" stroke-width="1"/>
<text x="116" y="891" fill="#7EC8E3" font-size="11">Lager: Wien</text>
<line x1="204" y1="878" x2="204" y2="896" stroke="#2D5FA6" stroke-width="1"/>
<text x="212" y="891" fill="#7EC8E3" font-size="11">MeaLana GmbH</text>
<line x1="332" y1="878" x2="332" y2="896" stroke="#2D5FA6" stroke-width="1"/>
<text x="340" y="891" fill="#718096" font-size="11">&#8635; Sync: 11:02:07</text>

</svg>
